# xmcd
#
# Track frame offsets:
#	150
#	13095
#	22617
#	38512
#	58867
#	71872
#	82970
#	93190
#	106057
#	122050
#
# Disc length: 1793 seconds
#
# Revision: 1
# Processed by: cddbd v1.5.2PL0 Copyright (c) Steve Scherf et al.
# Submitted via: EZCDAudioConverter 7.0.0.1
#
DISCID=6f06ff0a
DTITLE=Jimi Hendrix - The Early Years
DYEAR=1994
DGENRE=
TTITLE0=Go-Go Shoes
TTITLE1=Go-Go Place
TTITLE2=Soul Food (That's What I Like)
TTITLE3=Under the Table 1
TTITLE4=Under the Table 2
TTITLE5=Goodbye, Bessie May
TTITLE6=Two in One Goes
TTITLE7=Wipe the Sweat 1
TTITLE8=Wipe the Sweat 2
TTITLE9=Wipe the Sweat 3
EXTD=
EXTT0=
EXTT1=
EXTT2=
EXTT3=
EXTT4=
EXTT5=
EXTT6=
EXTT7=
EXTT8=
EXTT9=
PLAYORDER=
